<?xml version="1.0" encoding="utf-8"?>
<svg version="1.0" width="32.000000pt" height="32.000000pt" viewBox="0 0 32.000000 32.000000" preserveAspectRatio="xMidYMid meet" xmlns="http://www.w3.org/2000/svg">
  <g transform="translate(0.000000,32.000000) scale(0.100000,-0.100000)" fill="#000000" stroke="none">
    <path d="M90 291 c-97 -51 -112 -168 -31 -243 36 -34 46 -38 94 -38 70 0 115 29 141 92 23 56 16 104 -21 149 -49 58 -121 74 -183 40z m14 -77 c3 -9 6 -31 6 -50 0 -20 5 -34 13 -34 8 0 11 15 9 50 -4 48 -3 50 23 50 26 0 27 -1 23 -50 -2 -41 0 -50 12 -48 10 2 16 18 18 51 3 42 5 47 28 47 22 0 24 -4 24 -49 0 -34 -6 -56 -21 -75 -20 -26 -25 -27 -103 -24 l-81 3 -3 59 c-2 32 -1 65 2 72 7 19 42 18 50 -2z" style="fill: rgb(103, 125, 198);"/>
  </g>
</svg>