<?xml version="1.0" encoding="utf-8"?>
<svg version="1.0" width="394.000000pt" height="115.000000pt" viewBox="0 0 394.000000 115.000000" preserveAspectRatio="xMidYMid meet" xmlns="http://www.w3.org/2000/svg">
  <g transform="translate(0.000000,115.000000) scale(0.100000,-0.100000)" fill="#000000" stroke="none">
    <path d="M446 1124 c-152 -37 -309 -161 -374 -295 -89 -185 -79 -395 28 -556 113 -172 278 -263 475 -263 159 0 288 53 401 166 113 112 167 245 166 408 -2 306 -262 559 -570 555 -37 0 -94 -7 -126 -15z m-91 -309 c24 -24 25 -28 25 -185 l0 -160 160 0 c98 0 169 4 184 11 43 20 56 64 56 195 0 107 2 120 22 141 27 29 76 30 112 2 l26 -20 0 -147 c-1 -93 -6 -160 -14 -183 -21 -59 -64 -107 -124 -136 -57 -28 -58 -28 -298 -31 -227 -3 -242 -2 -265 16 -24 20 -24 20 -27 246 l-3 226 25 25 c34 34 88 34 121 0z m280 0 c24 -23 25 -30 25 -148 0 -111 -2 -127 -21 -151 -25 -32 -84 -36 -120 -7 -23 18 -24 26 -25 143 -1 161 10 185 84 187 22 1 41 -7 57 -24z" style="fill: rgb(103, 125, 198);"/>
    <path d="M1222 748 c-20 -20 -14 -49 34 -189 47 -137 64 -169 94 -169 29 0 47 32 75 130 15 52 31 101 34 108 4 7 20 -29 36 -85 38 -130 44 -142 73 -150 38 -9 54 18 106 175 50 150 53 164 32 181 -31 26 -52 -4 -86 -121 -18 -62 -35 -117 -38 -122 -3 -5 -18 35 -34 90 -37 131 -46 151 -70 158 -47 12 -54 0 -104 -181 -10 -35 -20 -63 -24 -63 -4 0 -12 19 -19 43 -42 144 -55 179 -68 192 -18 18 -25 19 -41 3z" style="fill: rgb(238, 92, 75);"/>
    <path d="M1885 746 c-84 -31 -127 -127 -101 -225 7 -28 22 -61 32 -73 27 -30 93 -58 139 -58 77 0 167 63 151 105 -8 23 -29 18 -71 -15 -69 -55 -151 -34 -170 41 l-7 27 117 3 c102 4 119 7 131 24 16 21 11 61 -12 107 -31 60 -134 91 -209 64z m120 -71 c14 -13 25 -36 25 -50 0 -25 -1 -25 -78 -25 -43 0 -81 3 -85 6 -10 10 14 64 36 79 32 22 74 18 102 -10z" style="fill: rgb(238, 92, 75);"/>
    <path d="M2206 738 c-13 -18 -16 -52 -16 -164 0 -124 2 -145 19 -165 16 -20 22 -22 44 -12 24 11 25 15 28 131 4 132 17 162 68 162 52 0 56 -9 60 -150 3 -128 4 -132 27 -142 20 -9 28 -8 42 6 13 13 18 41 22 137 4 104 8 123 24 135 26 18 61 18 80 -2 13 -12 16 -40 16 -134 0 -122 9 -150 45 -150 7 0 21 7 29 16 13 12 16 40 16 142 0 108 -3 132 -20 159 -33 54 -109 62 -177 18 -23 -15 -26 -15 -42 0 -44 39 -121 37 -175 -6 l-26 -20 0 20 c0 11 -9 25 -19 31 -26 14 -28 13 -45 -12z" style="fill: rgb(103, 125, 198);"/>
    <path d="M2911 750 c-80 -19 -126 -84 -126 -175 0 -70 23 -118 74 -152 91 -61 209 -31 259 67 45 89 13 203 -68 245 -35 18 -99 25 -139 15z m94 -66 c45 -17 60 -134 26 -191 -35 -56 -115 -53 -146 6 -28 56 -12 168 27 184 19 8 74 8 93 1z" style="fill: rgb(103, 125, 198);"/>
    <path d="M3321 748 c-79 -22 -122 -83 -123 -172 -1 -111 67 -181 176 -181 108 0 176 70 176 178 0 88 -48 154 -128 177 -43 12 -55 12 -101 -2z m123 -91 c28 -38 28 -126 0 -164 -67 -89 -175 -22 -160 100 8 71 36 99 95 95 35 -2 48 -9 65 -31z" style="fill: rgb(103, 125, 198);"/>
    <path d="M3616 744 c-9 -8 -16 -20 -16 -25 0 -5 28 -77 62 -160 65 -159 83 -183 126 -160 24 13 146 309 137 333 -10 24 -37 31 -54 13 -9 -8 -34 -65 -57 -126 -22 -61 -44 -111 -48 -112 -4 -1 -27 51 -51 117 -49 135 -65 155 -99 120z" style="fill: rgb(103, 125, 198);"/>
  </g>
</svg>